<svg xmlns="http://www.w3.org/2000/svg" viewBox="0 0 1000 760" role="img" aria-labelledby="title desc">
  <title id="title">Ilustração do Gerador de Ementas</title>
  <desc id="desc">Telemóvel com uma ementa semanal representada em cartões.</desc>
  <rect width="1000" height="760" rx="52" fill="#F7F7F7"/>
  <circle cx="235" cy="170" r="118" fill="#E1E2DB"/>
  <circle cx="790" cy="585" r="126" fill="#F4EEE8"/>
  <path d="M160 590c116-199 247-322 393-367 112-34 219-28 321 20" fill="none" stroke="#C39B7C" stroke-width="12" stroke-linecap="round" opacity=".42"/>
  <rect x="352" y="74" width="320" height="612" rx="54" fill="#0B0620"/>
  <rect x="373" y="98" width="278" height="564" rx="38" fill="#F4EEE8"/>
  <rect x="456" y="112" width="112" height="12" rx="6" fill="#0B0620" opacity=".35"/>
  <rect x="402" y="158" width="220" height="64" rx="20" fill="#E1E2DB"/>
  <circle cx="431" cy="190" r="13" fill="#AB7942"/>
  <rect x="459" y="176" width="128" height="11" rx="5.5" fill="#0B0620" opacity=".55"/>
  <rect x="459" y="196" width="95" height="9" rx="4.5" fill="#0B0620" opacity=".18"/>
  <rect x="402" y="244" width="220" height="108" rx="22" fill="#F7F7F7"/>
  <circle cx="438" cy="281" r="18" fill="#C39B7C" opacity=".75"/>
  <rect x="472" y="267" width="116" height="11" rx="5.5" fill="#0B0620" opacity=".55"/>
  <rect x="472" y="289" width="90" height="9" rx="4.5" fill="#0B0620" opacity=".18"/>
  <rect x="423" y="319" width="178" height="9" rx="4.5" fill="#AB7942" opacity=".28"/>
  <rect x="402" y="370" width="220" height="108" rx="22" fill="#F7F7F7"/>
  <circle cx="438" cy="407" r="18" fill="#E1E2DB"/>
  <rect x="472" y="393" width="116" height="11" rx="5.5" fill="#0B0620" opacity=".55"/>
  <rect x="472" y="415" width="78" height="9" rx="4.5" fill="#0B0620" opacity=".18"/>
  <rect x="423" y="445" width="155" height="9" rx="4.5" fill="#AB7942" opacity=".28"/>
  <rect x="402" y="496" width="220" height="108" rx="22" fill="#F7F7F7"/>
  <circle cx="438" cy="533" r="18" fill="#C39B7C" opacity=".48"/>
  <rect x="472" y="519" width="116" height="11" rx="5.5" fill="#0B0620" opacity=".55"/>
  <rect x="472" y="541" width="96" height="9" rx="4.5" fill="#0B0620" opacity=".18"/>
  <rect x="423" y="571" width="169" height="9" rx="4.5" fill="#AB7942" opacity=".28"/>
</svg>